{
  "accessors": [
    {
      "bufferView": 2,
      "componentType": 5126,
      "count": 33765,
      "max": [
        71.85690307617188,
        24.96649932861328,
        3.173369884490967
      ],
      "min": [
        -72.21839904785156,
        -25.08609962463379,
        -145.2570037841797
      ],
      "type": "VEC3"
    },
    {
      "bufferView": 2,
      "byteOffset": 405180,
      "componentType": 5126,
      "count": 33765,
      "max": [
        1.0,
        1.0,
        1.0
      ],
      "min": [
        -1.0,
        -1.0,
        -1.0
      ],
      "type": "VEC3"
    },
    {
      "bufferView": 3,
      "componentType": 5126,
      "count": 33765,
      "max": [
        1.0,
        1.0,
        1.0,
        1.0
      ],
      "min": [
        -1.0,
        -1.0,
        -1.0,
        -1.0
      ],
      "type": "VEC4"
    },
    {
      "bufferView": 1,
      "componentType": 5126,
      "count": 33765,
      "max": [
        0.991578996181488,
        0.9876869916915894
      ],
      "min": [
        0.0013032499700784683,
        0.008237389847636223
      ],
      "type": "VEC2"
    },
    {
      "bufferView": 0,
      "componentType": 5125,
      "count": 176640,
      "type": "SCALAR"
    }
  ],
  "asset": {
    "extras": {
      "author": "ahmed-youssuf (https://sketchfab.com/ahmed-youssuf)",
      "license": "CC-BY-4.0 (http://creativecommons.org/licenses/by/4.0/)",
      "source": "https://sketchfab.com/3d-models/glasses-f632e59e1b4d4dd1b5889c3f24f5da78",
      "title": "Glasses"
    },
    "generator": "Sketchfab-12.68.0",
    "version": "2.0"
  },
  "bufferViews": [
    {
      "buffer": 0,
      "byteLength": 706560,
      "name": "floatBufferViews",
      "target": 34963
    },
    {
      "buffer": 0,
      "byteLength": 270120,
      "byteOffset": 706560,
      "byteStride": 8,
      "name": "floatBufferViews",
      "target": 34962
    },
    {
      "buffer": 0,
      "byteLength": 810360,
      "byteOffset": 976680,
      "byteStride": 12,
      "name": "floatBufferViews",
      "target": 34962
    },
    {
      "buffer": 0,
      "byteLength": 540240,
      "byteOffset": 1787040,
      "byteStride": 16,
      "name": "floatBufferViews",
      "target": 34962
    }
  ],
  "buffers": [
    {
      "byteLength": 2327280,
      "uri": "scene.bin"
    }
  ],
  "images": [
    {
      "uri": "textures/aiStandardSurface1_baseColor.png"
    },
    {
      "uri": "textures/aiStandardSurface1_metallicRoughness.png"
    },
    {
      "uri": "textures/aiStandardSurface1_normal.png"
    }
  ],
  "materials": [
    {
      "alphaMode": "BLEND",
      "doubleSided": true,
      "name": "aiStandardSurface1",
      "normalTexture": {
        "index": 2
      },
      "occlusionTexture": {
        "index": 1
      },
      "pbrMetallicRoughness": {
        "baseColorTexture": {
          "index": 0
        },
        "metallicRoughnessTexture": {
          "index": 1
        },
        "roughnessFactor": 0.09599063199345272
      }
    }
  ],
  "meshes": [
    {
      "name": "Combiningwzx_Combiningwzx_aiStandardSurface1_0",
      "primitives": [
        {
          "attributes": {
            "NORMAL": 1,
            "POSITION": 0,
            "TANGENT": 2,
            "TEXCOORD_0": 3
          },
          "indices": 4,
          "material": 0,
          "mode": 4
        }
      ]
    }
  ],
  "nodes": [
    {
      "children": [
        1
      ],
      "matrix": [
        0.0010630455799400806,
        0.0,
        0.0,
        0.0,
        0.0,
        2.36043535815096e-19,
        -0.0010630455799400806,
        0.0,
        0.0,
        0.0010630455799400806,
        2.36043535815096e-19,
        0.0,
        0.0,
        0.0,
        0.0,
        1.0
      ],
      "name": "Sketchfab_model"
    },
    {
      "children": [
        2
      ],
      "matrix": [
        1.0,
        0.0,
        0.0,
        0.0,
        0.0,
        0.0,
        1.0,
        0.0,
        0.0,
        -1.0,
        0.0,
        0.0,
        0.0,
        0.0,
        0.0,
        1.0
      ],
      "name": "65a7a88f80094bf5bdb7a62e54a8073e.fbx"
    },
    {
      "children": [
        3,
        5
      ],
      "name": "RootNode"
    },
    {
      "children": [
        4
      ],
      "name": "Combiningwzx_Combiningwzx"
    },
    {
      "mesh": 0,
      "name": "Combiningwzx_Combiningwzx_aiStandardSurface1_0"
    },
    {
      "children": [
        6
      ],
      "matrix": [
        0.14910344123780706,
        0.0,
        -0.9888216036328514,
        0.0,
        0.0,
        1.0,
        0.0,
        0.0,
        0.9888216036328514,
        0.0,
        0.14910344123780706,
        0.0,
        0.0,
        0.0,
        0.0,
        1.0
      ],
      "name": "HDR_3_Studio"
    },
    {
      "children": [
        7
      ],
      "matrix": [
        -0.28859951595432487,
        4.089034597079138,
        -0.22257562554209792,
        0.0,
        3.379341024743051,
        0.11177990403551012,
        -2.3282167032617633,
        0.0,
        -2.3129630528143315,
        -0.3468931287130644,
        -3.373855450278234,
        0.0,
        0.34747394919395447,
        38.396095275878906,
        0.13251936435699463,
        1.0
      ],
      "name": "HDR_3_shadow"
    },
    {
      "children": [
        8
      ],
      "matrix": [
        1.0,
        0.0,
        0.0,
        0.0,
        0.0,
        2.220446049250313e-16,
        1.0,
        0.0,
        0.0,
        -1.0,
        2.220446049250313e-16,
        0.0,
        0.0,
        0.0,
        0.0,
        1.0
      ],
      "name": "Object_7"
    },
    {
      "name": "Object_8"
    }
  ],
  "samplers": [
    {
      "magFilter": 9729,
      "minFilter": 9987,
      "wrapS": 10497,
      "wrapT": 10497
    }
  ],
  "scene": 0,
  "scenes": [
    {
      "name": "Sketchfab_Scene",
      "nodes": [
        0
      ]
    }
  ],
  "textures": [
    {
      "sampler": 0,
      "source": 0
    },
    {
      "sampler": 0,
      "source": 1
    },
    {
      "sampler": 0,
      "source": 2
    }
  ]
}
